<?xml version="1.0" encoding="iso-8859-1"?>
<!-- Generator: Adobe Illustrator 16.0.0, SVG Export Plug-In . SVG Version: 6.00 Build 0)  -->
<!DOCTYPE svg PUBLIC "-//W3C//DTD SVG 1.1//EN" "http://www.w3.org/Graphics/SVG/1.1/DTD/svg11.dtd">
<svg version="1.1" id="Capa_1" xmlns="http://www.w3.org/2000/svg" xmlns:xlink="http://www.w3.org/1999/xlink" x="0px" y="0px"
	 width="612px" height="612px" viewBox="0 0 612 612" style="enable-background:new 0 0 612 612;" xml:space="preserve">
<g>
	<g>
		<path fill="white" d="M507.327,515.896H104.673C46.954,515.896,0,468.941,0,411.223V200.778C0,143.059,46.954,96.104,104.673,96.104h402.654
			C565.046,96.104,612,143.059,612,200.778v210.445C612,468.941,565.046,515.896,507.327,515.896z M104.673,127.491
			c-40.394,0-73.287,32.893-73.287,73.287v210.445c0,40.394,32.893,73.286,73.287,73.286h402.654
			c40.394,0,73.286-32.893,73.286-73.286V200.778c0-40.394-32.893-73.287-73.286-73.287H104.673z"/>
		<path fill="white" d="M306.988,375.693c-29.346,0-56.903-11.425-77.681-32.171L85.057,199.271c-20.15-20.119-31.543-46.891-32.14-75.358
			c-0.188-8.694,6.686-15.85,15.348-16.038c0.125,0,0.251,0,0.345,0c8.505,0,15.505,6.811,15.693,15.348
			c0.408,20.37,8.569,39.484,22.943,53.859l144.283,144.251c29.691,29.691,81.385,29.66,110.95,0l144.282-144.251
			c13.496-13.527,22.064-33.771,22.881-54.173c0.377-8.662,7.219-15.034,16.353-15.034c8.662,0.376,15.379,7.689,15.033,16.352
			c-1.192,28.467-12.899,55.836-32.076,75.076L384.67,343.554C363.955,364.269,336.366,375.693,306.988,375.693z"/>
		<path fill="white" d="M44.631,498.728c-4.959,0-9.887-2.386-12.931-6.812c-4.896-7.156-3.107-16.917,4.049-21.813l204.01-140.265
			c7.156-4.896,16.917-3.045,21.813,4.049c4.896,7.156,3.107,16.917-4.049,21.813L53.514,495.965
			C50.783,497.849,47.707,498.728,44.631,498.728z"/>
		<path fill="white" d="M568.373,498.728c-3.076,0-6.151-0.879-8.882-2.763L355.48,355.7c-7.156-4.896-8.945-14.688-4.049-21.813
			c4.928-7.125,14.688-8.945,21.813-4.049l204.011,140.265c7.155,4.896,8.944,14.689,4.049,21.813
			C578.291,496.342,573.363,498.728,568.373,498.728z"/>
	</g>
</g>
<g>
</g>
<g>
</g>
<g>
</g>
<g>
</g>
<g>
</g>
<g>
</g>
<g>
</g>
<g>
</g>
<g>
</g>
<g>
</g>
<g>
</g>
<g>
</g>
<g>
</g>
<g>
</g>
<g>
</g>
</svg>
